<svg width="51" height="50" viewBox="0 0 51 50" fill="none" xmlns="http://www.w3.org/2000/svg">
<path d="M36.235 28.1844C36.2149 28.2143 36.1948 28.2444 36.1742 28.274C35.8887 28.6918 35.898 28.7464 35.9694 29.0365L36.9977 32.9531C37.0083 32.993 37.008 33.0349 36.997 33.0746C36.986 33.1142 36.9646 33.1503 36.9351 33.179C36.9056 33.2077 36.8689 33.2281 36.8289 33.2379C36.7889 33.2478 36.747 33.2468 36.7075 33.2352L32.2147 31.9364C31.9889 31.8714 31.7057 31.9422 31.5247 32.0113C31.3436 32.0803 30.6438 32.3363 29.9375 32.5301C29.2312 32.7239 27.9435 33.0112 26.9877 33.0112C20.9756 33.0112 16.3005 28.2113 16.3005 22.4429C16.3011 21.7242 16.3789 21.0076 16.5326 20.3056C17.5575 15.5684 21.9319 12 27.1757 12C33.1879 12 38.0498 16.6745 38.0313 22.4371C38.0289 24.4477 37.4283 26.4121 36.306 28.0802C36.2821 28.114 36.2586 28.1491 36.235 28.1844Z" fill="white"/>
<path d="M26.9657 34.3687C27.4179 34.3609 27.869 34.3212 28.3156 34.2497C28.3677 34.2416 28.4212 34.2502 28.4681 34.2743C28.5151 34.2985 28.5531 34.337 28.5768 34.3842C28.6004 34.4315 28.6085 34.485 28.5997 34.5371C28.5909 34.5891 28.5658 34.6371 28.528 34.674C26.6961 36.3964 24.2741 37.3517 21.7597 37.3434C20.4534 37.3434 19.147 37.0579 17.9661 36.5937C17.8481 36.5423 17.7211 36.5147 17.5925 36.5126C17.4638 36.5104 17.336 36.5336 17.2163 36.5809L13.2701 37.9876C13.2317 38.0007 13.1905 38.0035 13.1507 37.9957C13.1109 37.9879 13.0738 37.9698 13.0431 37.9432C13.0125 37.9166 12.9893 37.8824 12.976 37.8441C12.9627 37.8057 12.9596 37.7646 12.9672 37.7247L13.7849 33.5313C13.8098 33.4187 13.7286 33.2498 13.5852 33.0311C12.4418 31.3179 11.9054 29.271 12.0617 27.2172C12.218 25.1634 13.058 23.2212 14.4476 21.7008C14.4825 21.6626 14.5283 21.6361 14.5788 21.6249C14.6293 21.6136 14.682 21.6182 14.7298 21.638C14.7777 21.6578 14.8182 21.6918 14.846 21.7354C14.8738 21.7791 14.8875 21.8302 14.8852 21.8819L14.8851 21.8836C14.8787 22.0583 14.8724 22.2324 14.8724 22.4135C14.8724 25.0818 15.6976 27.6317 17.2111 29.6379C18.0383 30.7867 19.0856 31.7596 20.292 32.5001C22.1781 33.7187 24.5034 34.3687 26.9657 34.3687Z" fill="white"/>
<rect x="1.03528" y="1" width="47.9959" height="48" rx="23.9979" stroke="white" stroke-width="2"/>
</svg>
